<?xml version="1.0" standalone="no"?>
<!DOCTYPE svg PUBLIC "-//W3C//DTD SVG 20010904//EN"
 "http://www.w3.org/TR/2001/REC-SVG-20010904/DTD/svg10.dtd">
<svg version="1.0" xmlns="http://www.w3.org/2000/svg"
 width="512.000000pt" height="512.000000pt" viewBox="0 0 512.000000 512.000000"
 preserveAspectRatio="xMidYMid meet">

<g transform="translate(0.000000,512.000000) scale(0.100000,-0.100000)"
fill="#000000" stroke="none">
<path d="M986 4625 c-192 -49 -358 -223 -373 -393 -5 -52 2 -84 32 -154 6 -14
2 -18 -18 -18 -56 0 -107 -72 -107 -150 0 -85 55 -150 127 -150 29 0 34 -5 62
-65 16 -36 53 -89 81 -119 l50 -53 0 -77 0 -77 -287 -142 c-314 -155 -345
-177 -392 -276 -25 -54 -26 -63 -29 -261 -3 -200 -3 -206 18 -225 21 -19 42
-20 732 -23 l709 -2 -20 -29 c-64 -89 -54 -129 60 -247 l89 -92 -33 -79 -33
-78 -129 -5 c-142 -5 -165 -13 -195 -63 -18 -28 -20 -51 -20 -205 0 -192 5
-213 62 -253 29 -21 46 -24 159 -27 l126 -4 31 -76 31 -75 -84 -86 c-93 -95
-109 -126 -99 -186 5 -35 23 -57 133 -166 177 -178 200 -180 347 -38 l91 88
74 -31 c41 -17 77 -36 81 -42 4 -6 8 -63 8 -126 0 -96 3 -120 20 -147 34 -57
59 -63 252 -63 154 0 177 2 205 20 53 32 66 70 71 207 l4 122 37 12 c20 6 53
20 74 31 l38 19 92 -89 c148 -143 171 -141 348 37 178 177 180 200 38 347
l-88 91 31 75 31 76 127 4 c140 4 165 13 200 71 18 29 20 51 20 207 0 156 -2
179 -20 207 -30 50 -53 58 -194 63 l-129 5 -32 75 -32 75 79 83 c115 120 130
172 73 256 l-24 36 708 2 c689 3 710 4 731 23 21 19 21 25 18 225 -3 198 -4
207 -29 261 -47 99 -78 121 -392 276 l-287 142 0 72 0 71 52 57 c44 48 79 108
101 174 4 11 17 17 39 17 98 0 158 119 114 224 -16 39 -60 76 -90 76 -41 0
-50 14 -31 50 41 80 25 204 -39 304 -45 71 -135 150 -214 188 -63 31 -73 33
-177 33 -135 0 -210 -23 -313 -95 -70 -49 -121 -109 -162 -190 -31 -60 -39
-179 -16 -234 20 -48 20 -56 0 -56 -26 0 -70 -31 -88 -60 -10 -19 -16 -51 -16
-95 0 -65 1 -69 39 -106 32 -32 46 -39 78 -39 38 0 39 -1 66 -64 16 -37 52
-90 83 -124 l54 -60 0 -69 0 -68 -231 -116 -231 -115 -229 115 -229 115 0 71
c0 70 1 72 41 110 48 47 92 115 109 168 10 32 16 37 41 37 77 0 129 61 129
151 0 84 -42 137 -122 154 l-26 5 20 52 c62 163 -50 377 -249 475 -125 62
-275 57 -421 -12 -97 -46 -191 -136 -235 -224 -28 -57 -32 -76 -32 -146 0 -57
5 -90 18 -114 21 -43 22 -41 -8 -41 -15 0 -41 -14 -62 -34 -34 -31 -37 -39
-41 -98 -3 -47 0 -74 12 -97 21 -40 71 -71 114 -71 22 0 34 -6 38 -17 20 -60
62 -130 105 -174 l49 -50 0 -75 0 -74 -220 -110 c-121 -60 -227 -110 -235
-110 -8 0 -116 51 -240 112 l-225 113 0 70 1 70 50 49 c31 31 63 77 85 123 34
70 37 73 71 73 28 0 44 8 74 39 38 37 39 41 39 108 0 92 -26 132 -102 153 -43
12 -44 14 -22 66 21 50 20 148 -2 204 -45 117 -130 206 -253 267 -66 34 -82
37 -165 40 -56 1 -114 -3 -150 -12z m265 -141 c110 -55 199 -172 199 -258 l0
-41 -29 49 c-50 85 -82 88 -148 16 -54 -59 -122 -94 -218 -115 -79 -17 -257
-20 -285 -5 -51 27 -43 139 17 217 48 63 78 88 148 123 112 56 223 61 316 14z
m1440 1 c105 -54 183 -155 195 -251 l6 -49 -33 50 c-17 28 -37 53 -43 57 -29
19 -60 6 -110 -45 -86 -89 -199 -127 -382 -127 -130 0 -149 12 -148 92 3 209
315 374 515 273z m1385 20 c108 -32 221 -146 243 -244 14 -65 3 -69 -33 -14
-25 38 -38 49 -62 51 -27 3 -37 -4 -68 -41 -70 -86 -215 -137 -385 -137 -117
0 -135 5 -150 36 -55 121 97 309 280 349 84 18 115 18 175 0z m-2692 -438 l39
-49 -6 -115 c-5 -96 -10 -123 -32 -168 -49 -101 -177 -186 -280 -187 -103 -1
-241 93 -286 194 -17 41 -24 77 -27 156 l-4 102 53 -6 c127 -15 344 35 443
101 28 19 53 31 56 27 4 -4 23 -29 44 -55z m1429 13 l37 -50 0 -117 c0 -109
-2 -123 -28 -178 -43 -89 -135 -160 -242 -184 -74 -16 -190 28 -260 100 -66
68 -85 118 -88 239 l-4 105 119 2 c166 2 311 43 393 112 14 11 27 20 30 20 3
0 22 -22 43 -49z m1474 -170 c-2 -102 -7 -134 -24 -171 -49 -109 -185 -195
-302 -191 -44 2 -147 50 -194 91 -20 18 -50 60 -67 93 -28 56 -30 69 -30 163
l0 103 63 -5 c77 -6 244 19 320 47 31 12 78 36 104 54 l48 33 43 -46 42 -46
-3 -125z m-3617 0 c0 -20 -5 -30 -15 -30 -10 0 -15 10 -15 30 0 20 5 30 15 30
10 0 15 -10 15 -30z m890 0 c0 -16 -4 -30 -10 -30 -5 0 -10 14 -10 30 0 17 5
30 10 30 6 0 10 -13 10 -30z m550 0 c0 -20 -5 -30 -15 -30 -10 0 -15 10 -15
30 0 20 5 30 15 30 10 0 15 -10 15 -30z m890 0 c0 -20 -5 -30 -15 -30 -10 0
-15 10 -15 30 0 20 5 30 15 30 10 0 15 -10 15 -30z m540 0 c0 -16 -4 -30 -10
-30 -5 0 -10 14 -10 30 0 17 5 30 10 30 6 0 10 -13 10 -30z m900 0 c0 -20 -5
-30 -15 -30 -10 0 -15 10 -15 30 0 20 5 30 15 30 10 0 15 -10 15 -30z m-3407
-476 c51 -13 72 -14 120 -4 33 6 65 14 73 17 11 4 14 -5 14 -39 0 -41 -5 -48
-70 -113 l-70 -69 -70 69 c-65 64 -70 73 -70 112 0 24 3 43 6 43 3 0 34 -7 67
-16z m1460 -5 c45 -10 82 -6 165 17 20 6 22 3 22 -39 0 -44 -3 -48 -72 -111
l-72 -66 -68 67 c-63 63 -68 70 -68 111 0 41 2 44 23 38 12 -4 43 -11 70 -17z
m1416 5 c59 -15 105 -12 189 12 20 6 22 3 22 -39 0 -43 -3 -47 -76 -112 l-75
-68 -65 64 c-61 60 -64 66 -64 111 0 26 2 48 4 48 2 0 32 -7 65 -16z m-2957
-231 c32 -32 58 -62 58 -68 0 -17 -57 -68 -68 -61 -5 3 -30 41 -55 85 -44 78
-44 79 -23 89 11 6 23 11 26 11 2 1 30 -25 62 -56z m392 44 c16 -12 14 -19
-30 -95 -27 -45 -51 -82 -54 -82 -3 0 -21 16 -40 35 l-34 35 59 60 c63 64 71
67 99 47z m1051 -47 l60 -60 -37 -37 c-21 -20 -39 -35 -41 -33 -2 3 -25 41
-50 85 l-46 80 22 12 c12 7 24 12 27 13 3 0 32 -27 65 -60z m382 47 l22 -12
-46 -80 c-25 -44 -48 -82 -50 -84 -2 -3 -21 12 -42 33 l-39 38 61 59 c34 32
64 58 67 58 3 0 15 -5 27 -12z m1050 -49 l63 -62 -32 -33 c-18 -18 -35 -33
-39 -33 -4 0 -28 37 -53 82 -44 76 -46 83 -30 95 10 7 20 13 23 13 3 0 34 -28
68 -62z m388 49 c17 -13 16 -18 -24 -90 -23 -42 -47 -79 -53 -83 -5 -4 -27 10
-47 30 l-36 37 65 59 c36 33 68 59 71 60 3 0 13 -6 24 -13z m-3406 -197 c71
-127 91 -150 126 -150 10 0 52 34 94 75 l77 75 74 -75 c46 -46 83 -75 96 -75
29 0 53 29 128 162 l67 117 102 -50 c56 -28 104 -53 106 -55 3 -2 -9 -19 -27
-37 -17 -17 -43 -58 -58 -91 -24 -54 -27 -72 -32 -217 l-5 -159 -653 0 -654 0
0 133 c0 231 7 240 279 377 108 55 198 99 201 99 3 1 38 -58 79 -129z m1432 7
c70 -124 97 -157 130 -157 13 0 50 28 95 72 l74 71 74 -71 c41 -41 83 -72 94
-72 32 0 58 29 118 135 31 55 63 110 70 122 l14 23 189 -94 c103 -52 200 -101
214 -111 14 -9 38 -40 52 -68 23 -47 25 -61 25 -194 0 -132 -1 -143 -18 -143
-10 0 -29 12 -43 26 -29 32 -77 54 -117 54 -38 0 -105 -45 -181 -123 l-64 -66
-36 18 c-20 10 -52 24 -73 30 l-36 12 -4 127 c-3 142 -12 167 -71 202 -29 18
-51 20 -208 20 -166 0 -178 -1 -210 -23 -56 -37 -69 -75 -69 -209 l0 -116 -37
-13 c-21 -6 -54 -20 -74 -30 l-36 -18 -64 66 c-76 78 -143 123 -181 123 -40 0
-88 -22 -117 -54 -14 -14 -33 -26 -43 -26 -17 0 -18 11 -18 136 0 233 4 238
275 372 110 55 203 98 207 96 3 -2 35 -55 69 -117z m1434 6 c76 -134 100 -163
129 -163 13 0 50 29 96 75 l74 75 77 -75 c44 -43 85 -75 97 -75 32 0 56 28
127 155 37 66 69 121 70 123 2 2 93 -42 202 -97 276 -138 283 -146 283 -378
l0 -133 -654 0 -653 0 -5 159 c-5 141 -8 164 -30 213 -14 29 -40 71 -58 91
-18 21 -31 39 -29 41 3 3 200 104 206 105 1 1 31 -52 68 -116z m-985 -420 c0
-127 10 -170 47 -205 30 -27 197 -98 231 -98 42 0 77 23 157 100 45 44 88 80
96 80 9 0 60 -45 114 -100 l98 -100 -81 -84 c-77 -78 -112 -133 -112 -172 0
-28 72 -198 94 -223 36 -41 76 -51 201 -51 l115 0 0 -149 0 -149 -122 -4
c-178 -6 -191 -14 -254 -174 -51 -129 -48 -141 68 -260 l91 -94 -106 -107
-106 -107 -89 86 c-64 61 -102 90 -131 99 -38 11 -47 10 -138 -27 -107 -42
-156 -82 -167 -134 -3 -18 -6 -79 -6 -136 l0 -104 -150 0 -150 0 0 108 c-1
109 -14 167 -44 201 -16 18 -165 84 -217 96 -43 11 -97 -20 -186 -107 l-84
-83 -106 108 -106 107 85 88 c63 64 89 99 99 130 12 40 10 47 -25 135 -66 162
-75 169 -253 175 l-123 4 0 149 0 149 115 0 c176 0 197 14 261 175 35 89 36
97 25 136 -9 29 -37 67 -98 130 l-86 89 98 100 c55 55 105 100 114 100 8 0 51
-36 96 -80 80 -77 115 -100 157 -100 34 0 201 71 231 98 37 35 47 78 47 205
l0 107 150 0 150 0 0 -107z"/>
<path d="M2402 2160 c-235 -62 -402 -278 -402 -520 0 -245 176 -469 411 -525
343 -80 669 177 669 528 0 135 -59 276 -155 373 -76 75 -151 119 -251 144 -96
25 -177 25 -272 0z m273 -125 c116 -40 222 -144 262 -258 26 -75 24 -214 -5
-287 -81 -205 -306 -314 -514 -250 -303 93 -397 471 -173 694 112 113 279 152
430 101z"/>
</g>
</svg>
