<?xml version="1.0" standalone="no"?>
<!DOCTYPE svg PUBLIC "-//W3C//DTD SVG 20010904//EN"
 "http://www.w3.org/TR/2001/REC-SVG-20010904/DTD/svg10.dtd">
<svg version="1.0" xmlns="http://www.w3.org/2000/svg"
 width="512.000000pt" height="512.000000pt" viewBox="0 0 512.000000 512.000000"
 preserveAspectRatio="xMidYMid meet">

<g transform="translate(0.000000,512.000000) scale(0.100000,-0.100000)"
fill="#000000" stroke="none">
<path d="M2434 4881 c-25 -12 -137 -109 -285 -248 -134 -126 -272 -255 -305
-286 l-61 -57 -5 64 c-6 69 -24 105 -65 127 -38 20 -488 20 -526 0 -63 -34
-62 -29 -59 -436 l3 -371 -320 -301 c-301 -284 -320 -305 -341 -360 -84 -222
149 -431 357 -320 24 12 97 73 163 135 l120 114 0 -322 c0 -302 -1 -322 -17
-315 -10 3 -86 9 -169 12 l-152 6 -6 55 c-9 77 -35 130 -89 179 -69 63 -123
76 -315 71 -133 -3 -164 -6 -202 -24 -54 -25 -103 -72 -133 -128 -22 -41 -22
-43 -25 -651 -1 -335 0 -620 3 -633 3 -14 19 -29 40 -38 l35 -14 0 -150 c0
-150 0 -151 -24 -160 -45 -17 -56 -47 -56 -147 0 -154 49 -242 165 -295 46
-21 64 -23 220 -23 166 0 171 1 227 28 87 43 122 92 155 214 l8 32 536 -203
c295 -112 553 -206 574 -210 21 -4 67 -7 104 -7 74 0 1623 222 1716 246 87 22
231 96 295 152 367 321 1047 943 1070 979 78 123 60 284 -43 387 -92 92 -234
118 -350 65 -32 -15 -201 -124 -376 -242 -176 -118 -322 -212 -325 -209 -8 8
-8 1343 0 1343 3 0 62 -52 130 -116 69 -63 144 -124 167 -134 95 -43 226 -14
296 65 46 53 63 99 64 170 1 101 -19 130 -214 315 -341 324 -320 308 -373 289
l-34 -12 -110 104 c-90 84 -109 107 -101 121 18 34 10 67 -28 104 -21 20 -269
253 -551 518 -329 309 -531 491 -563 509 -64 34 -160 37 -225 8z m-804 -631
l0 -100 -107 -103 c-60 -56 -141 -134 -180 -171 l-73 -69 0 271 0 272 180 0
180 0 0 -100z m1652 -653 l547 -512 1 -797 0 -798 -103 -68 -103 -69 -109 6
-109 6 -12 72 c-25 152 -115 280 -242 346 -37 19 -79 37 -94 41 l-28 6 0 154
c0 84 -3 310 -6 502 l-7 349 -39 38 -39 37 -392 0 c-365 0 -394 -1 -420 -19
-64 -42 -62 -24 -67 -502 l-5 -436 -105 33 c-61 19 -188 75 -300 132 -116 58
-234 110 -292 127 l-98 30 0 405 1 405 640 603 641 602 96 -91 c54 -50 343
-321 644 -602z m-2127 -1452 c136 -24 251 -68 455 -171 304 -154 368 -170 980
-239 223 -25 421 -51 440 -56 89 -27 179 -117 206 -205 21 -69 19 -94 -8 -94
-12 0 -359 30 -772 66 -562 49 -756 63 -773 55 -55 -25 -55 -102 0 -126 29
-13 1472 -144 1767 -160 58 -3 128 -8 157 -11 l51 -5 542 363 541 363 64 0
c49 0 70 -5 91 -21 49 -36 67 -70 72 -131 3 -48 0 -64 -20 -93 -22 -33 -901
-833 -1038 -945 -79 -64 -166 -109 -251 -130 -110 -26 -1600 -237 -1679 -238
-74 0 -85 4 -640 215 l-565 214 -3 688 -2 689 147 -6 c82 -3 189 -13 238 -22z"/>
</g>
</svg>
